# xmcd CD database file
#
# Track frame offsets:
#	150
#	7175
#	17967
#	36788
#	62941
#	81061
#	106482
#	129540
#	160911
#	192327
#	206572
#
# Disc length: 2926 seconds
#
# Revision: 0
# Processed by: cddbd v1.5.1PL0 Copyright (c) Steve Scherf et al.
# Submitted via: CDex 1.51
#
DISCID=970b6c0b
DTITLE=cooper-moore - live at guelph-deep in the neighborhood of history and influence
DYEAR=1900
DGENRE=Jazz
TTITLE0=introduction by vijay iver
TTITLE1=prelude...i want to give thanks
TTITLE2=part 1...all of a sudden
TTITLE3=part 2...a float
TTITLE4=part 3...waltz
TTITLE5=part 4...blues for jacki byard
TTITLE6=part 5...we who labor
TTITLE7=part 6...radiance
TTITLE8=part 7...evolution
TTITLE9=part 8...the people
TTITLE10=part 9...the agony of these feelings felt
EXTD=
EXTT0=
EXTT1=
EXTT2=
EXTT3=
EXTT4=
EXTT5=
EXTT6=
EXTT7=
EXTT8=
EXTT9=
EXTT10=
PLAYORDER=
